<?xml version="1.0" encoding="utf-8"?>
<!-- Generator: Adobe Illustrator 16.0.4, SVG Export Plug-In . SVG Version: 6.00 Build 0)  -->
<!DOCTYPE svg PUBLIC "-//W3C//DTD SVG 1.1//EN" "http://www.w3.org/Graphics/SVG/1.1/DTD/svg11.dtd">
<svg version="1.1" id="Layer_1" xmlns="http://www.w3.org/2000/svg" xmlns:xlink="http://www.w3.org/1999/xlink" x="0px" y="0px"
	 width="800px" height="320px" viewBox="-94.002 222.5 800 320" enable-background="new -94.002 222.5 800 320"
	 xml:space="preserve">
<path fill="#FFFFFF" d="M560.928,460.478c-3.922-5.324-8.898-8.268-12.9-10.637c-6.988-4.137-9.885-5.844-5.307-21.848
	c3.465-12.137-0.264-20.594-4.002-25.552c-8.316-11.028-24.113-14.951-36.121-14.951c-6.988,0-9.18-2.546-9.908-3.384
	c-3.262-3.776-4.203-11.604-2.656-22.051c1.236-8.336-1.432-15.808-7.508-21.028c-10.875-9.339-30.209-9.18-43.557-5.073
	c-3.635,1.119-4.963,0.324-5.398,0.055c-5.244-3.158-8.354-19.486-9.521-25.63c-2.154-11.304-9.535-19.596-20.252-22.76
	c-12.264-3.617-27.344,0.227-35.857,9.149c-1.512,1.585-4.443,4.155-7.068,3.721c-2.883-0.483-6.211-4.296-8.904-10.189
	c-5.943-12.993-17.949-22.234-30.588-23.544c-10.508-1.083-20.312,3.439-26.934,12.424c-4.877,6.609-9.712,10.41-13.623,10.704
	c-0.881,0.085-3.592,0.281-7.632-3.758c-7.68-7.681-20.532-15.465-33.635-14.339c-8.28,0.729-15.312,4.896-20.331,12.069
	c-2.699,3.855-4.792,7.35-6.64,10.435c-5.918,9.877-6.451,9.798-10.508,9.217c-1.689-0.245-3.507-0.588-5.398-0.949
	c-12.858-2.442-39.578-7.497-46.665,25.588c-2.167,10.11-4.719,11.916-5,12.086c-1.107,0.668-5.085-0.416-7.993-1.211
	c-2.375-0.649-4.779-1.292-7.154-1.689c-8.268-1.383-20.808,0.416-28.886,10.012c-4.963,5.9-9.614,16.537-3.592,33.709
	c2.466,7.039,1.334,9.046,1.285,9.125c-1.022,1.695-7.858,2.73-11.53,3.281c-2.925,0.439-5.949,0.893-8.794,1.664
	c-9.602,2.595-16.652,9.376-18.85,18.134c-1.475,5.875-1.842,17.724,12.283,31.04c0.239,0.221,0.447,0.429,0.637,0.619
	c-1.218,0.758-2.693,1.584-3.843,2.233c-7.338,4.131-17.387,9.786-20.918,21.42c-1.781,5.862-0.894,11.609,2.497,16.188
	c9.352,12.606,34.352,13.647,74.364,13.647c0.502,0,1.003,0,1.505,0h390.224c24.223,0,41.377-6.45,47.057-17.699
	C566.547,474.303,565.684,466.928,560.928,460.478z M516.246,480.05H126.01c-19.37,0.006-55.312,0.03-60.894-5.968
	c0.031-0.006,0.067-0.055,0.104-0.171c1.389-4.584,6.965-7.724,12.356-10.753c6.34-3.568,13.525-7.613,14.523-15.777
	c1.003-8.22-5.563-14.407-7.724-16.444c-5.257-4.957-7.901-9.896-7.069-13.207c0.545-2.186,2.785-4.052,5.833-4.878
	c1.824-0.495,4.21-0.856,6.738-1.235c8.488-1.279,19.051-2.871,24.529-11.965c3.813-6.328,3.911-14.4,0.312-24.67
	c-1.744-4.976-3.103-11.75,0.312-15.814c2.754-3.28,8.029-4.369,11.824-3.727c1.769,0.293,3.549,0.801,5.318,1.285
	c6.126,1.677,14.51,3.984,22.381-0.803c6.505-3.953,10.765-11.554,13.421-23.929c3.06-14.284,9.027-14.479,25.288-11.401
	c2.179,0.41,4.271,0.808,6.224,1.083c16.665,2.375,23.14-8.421,28.856-17.956c1.689-2.821,3.604-6.016,5.937-9.345
	c1.885-2.687,4.07-4.057,6.885-4.302c5.422-0.465,13.262,3.237,19.052,9.033c8.256,8.25,16.512,9.517,21.989,9.082
	c9.596-0.722,18.684-6.817,27.02-18.115c2.814-3.825,6.176-5.453,10.264-5.055c6.199,0.643,12.545,5.833,15.783,12.914
	c6.902,15.104,16.078,19.571,22.559,20.661c8.164,1.358,16.457-1.885,23.396-9.156c3.838-4.015,11.635-5.918,17.381-4.21
	c4.119,1.212,6.543,4.021,7.412,8.586c2.943,15.447,6.762,31.101,18.09,37.919c5.832,3.507,12.639,4.106,20.27,1.762
	c9.773-3.017,21.77-2.344,26.193,1.451c0.881,0.759,1.707,1.72,1.311,4.412c-2.412,16.262-0.08,28.623,6.92,36.732
	c3.838,4.449,11.084,9.75,23.809,9.75c9.24,0,18.066,3.145,21.463,7.649c1.15,1.53,2.514,4.174,1.01,9.449
	c-7.822,27.368,1.977,35.814,13.615,42.699c3.092,1.83,5.76,3.409,7.467,5.723c0.527,0.716,0.68,1.181,0.771,1.07
	C546.039,474.425,536.9,480.05,516.246,480.05z"/>
<path fill="#FFFFFF" d="M329.164,319.528C178.716,294.099,104.633,421.145,103.899,422.43c-2.503,4.406-0.961,10,3.439,12.503
	c4.388,2.51,10,0.979,12.515-3.428c2.57-4.498,60.771-103.593,181.507-96.689c-0.049,0.031-0.098,0.043-0.146,0.067
	c-2.95,1.8-72.424,45.031-87.651,126.011c-0.937,4.981,2.344,9.786,7.326,10.717c0.575,0.109,1.145,0.158,1.708,0.158
	c4.333,0,8.183-3.078,9.015-7.484c13.685-72.785,78.532-113.342,79.186-113.74c4.314-2.65,5.674-8.299,3.029-12.619
	c-0.537-0.881-1.223-1.604-1.971-2.229c4.67,0.49,9.408,1.102,14.254,1.922c138.117,23.336,170.943,123.44,172.271,127.694
	c1.225,3.935,4.848,6.463,8.766,6.463c0.893,0,1.805-0.129,2.705-0.41c4.846-1.493,7.562-6.628,6.07-11.476
	C514.471,455.214,478.854,344.821,329.164,319.528z"/>
<path fill="#FFFFFF" d="M372.236,356.56c-2.662-4.32-8.316-5.66-12.631-2.998c-2.492,1.535-61.054,38.378-70.864,107.755
	c-0.71,5.018,2.785,9.663,7.803,10.373c0.435,0.062,0.869,0.092,1.298,0.092c4.498,0,8.427-3.311,9.076-7.895
	c8.58-60.668,61.793-94.37,62.332-94.708C373.559,366.517,374.893,360.868,372.236,356.56z"/>
<path fill="#FFFFFF" d="M411.955,385.581c-1.627,0.729-40.031,18.428-56.348,74.462c-1.42,4.865,1.377,9.964,6.25,11.377
	c0.855,0.251,1.719,0.374,2.57,0.374c3.977,0,7.643-2.607,8.807-6.616c13.812-47.431,44.902-62.228,46.248-62.853
	c4.596-2.08,6.658-7.49,4.596-12.105C422.016,385.587,416.594,383.507,411.955,385.581z"/>
<path fill="#FFFFFF" d="M221.746,371.799c3.917-3.22,4.479-9.003,1.267-12.913c-3.219-3.917-8.99-4.492-12.907-1.279
	c-2.062,1.689-50.594,42.002-62.437,99.125c-1.028,4.97,2.161,9.823,7.124,10.852c0.63,0.128,1.255,0.195,1.873,0.195
	c4.259,0,8.078-2.986,8.978-7.319C176.151,409.804,221.292,372.179,221.746,371.799z"/>
</svg>
