<?xml version="1.0" encoding="utf-8"?>
<!-- Generator: Adobe Illustrator 16.0.4, SVG Export Plug-In . SVG Version: 6.00 Build 0)  -->
<!DOCTYPE svg PUBLIC "-//W3C//DTD SVG 1.1//EN" "http://www.w3.org/Graphics/SVG/1.1/DTD/svg11.dtd">
<svg version="1.1" id="Layer_1" xmlns="http://www.w3.org/2000/svg" xmlns:xlink="http://www.w3.org/1999/xlink" x="0px" y="0px"
	 width="800px" height="800px" viewBox="-94 -4 800 800" enable-background="new -94 -4 800 800" xml:space="preserve">
<path d="M560.931,473.978c-3.923-5.324-8.898-8.268-12.901-10.637c-6.988-4.137-9.884-5.844-5.306-21.848
	c3.464-12.137-0.264-20.594-4.003-25.551c-8.316-11.028-24.112-14.951-36.12-14.951c-6.989,0-9.18-2.547-9.908-3.385
	c-3.262-3.775-4.204-11.604-2.656-22.051c1.236-8.335-1.432-15.807-7.509-21.027c-10.875-9.34-30.208-9.18-43.556-5.074
	c-3.636,1.12-4.964,0.324-5.398,0.055c-5.245-3.157-8.354-19.485-9.522-25.63c-2.154-11.304-9.535-19.597-20.251-22.761
	c-12.265-3.616-27.345,0.227-35.857,9.15c-1.512,1.584-4.443,4.154-7.068,3.721c-2.883-0.484-6.212-4.297-8.904-10.189
	c-5.943-12.993-17.95-22.234-30.588-23.545c-10.509-1.082-20.312,3.439-26.935,12.424c-4.877,6.609-9.713,10.41-13.623,10.705
	c-0.881,0.085-3.592,0.281-7.632-3.758c-7.681-7.682-20.532-15.466-33.636-14.34c-8.279,0.729-15.312,4.896-20.33,12.068
	c-2.699,3.855-4.792,7.351-6.641,10.436c-5.918,9.877-6.45,9.797-10.508,9.217c-1.689-0.246-3.507-0.588-5.398-0.949
	c-12.857-2.441-39.577-7.497-46.664,25.588c-2.166,10.109-4.719,11.916-5,12.087c-1.107,0.667-5.086-0.417-7.993-1.212
	c-2.374-0.648-4.779-1.291-7.154-1.689c-8.269-1.383-20.808,0.416-28.886,10.013c-4.964,5.899-9.615,16.536-3.593,33.709
	c2.466,7.038,1.334,9.046,1.285,9.125c-1.022,1.695-7.858,2.729-11.53,3.28c-2.926,0.44-5.949,0.894-8.795,1.664
	c-9.602,2.596-16.652,9.377-18.85,18.135c-1.475,5.875-1.842,17.723,12.283,31.04c0.238,0.22,0.447,0.429,0.637,0.618
	c-1.218,0.759-2.693,1.585-3.844,2.234c-7.338,4.131-17.387,9.785-20.918,21.42c-1.781,5.861-0.894,11.609,2.497,16.188
	c9.352,12.605,34.352,13.646,74.364,13.646c0.502,0,1.004,0,1.506,0h390.223c24.224,0,41.378-6.449,47.057-17.699
	C566.549,487.804,565.686,480.429,560.931,473.978z M516.248,493.55H126.013c-19.37,0.006-55.312,0.031-60.894-5.967
	c0.03-0.006,0.066-0.055,0.104-0.172c1.389-4.584,6.965-7.723,12.356-10.752c6.341-3.568,13.525-7.613,14.522-15.777
	c1.004-8.22-5.562-14.407-7.723-16.445c-5.258-4.957-7.901-9.896-7.069-13.207c0.545-2.185,2.784-4.051,5.833-4.877
	c1.823-0.496,4.21-0.857,6.738-1.236c8.488-1.279,19.051-2.871,24.528-11.965c3.813-6.328,3.911-14.4,0.312-24.67
	c-1.744-4.975-3.102-11.75,0.312-15.814c2.754-3.279,8.029-4.369,11.824-3.727c1.769,0.294,3.549,0.802,5.318,1.285
	c6.126,1.678,14.51,3.984,22.381-0.802c6.506-3.953,10.765-11.554,13.421-23.929c3.06-14.285,9.026-14.48,25.288-11.402
	c2.179,0.41,4.271,0.809,6.224,1.084c16.665,2.375,23.14-8.422,28.856-17.957c1.688-2.82,3.604-6.016,5.936-9.345
	c1.885-2.687,4.07-4.058,6.885-4.302c5.423-0.465,13.263,3.236,19.053,9.033c8.256,8.25,16.512,9.516,21.988,9.082
	c9.597-0.723,18.685-6.818,27.021-18.115c2.814-3.826,6.175-5.453,10.263-5.056c6.2,0.643,12.546,5.833,15.783,12.913
	c6.903,15.104,16.078,19.572,22.559,20.662c8.164,1.357,16.457-1.886,23.396-9.156c3.838-4.015,11.635-5.918,17.381-4.211
	c4.119,1.213,6.543,4.021,7.412,8.587c2.943,15.446,6.762,31.102,18.09,37.919c5.833,3.508,12.639,4.107,20.27,1.763
	c9.774-3.017,21.77-2.344,26.194,1.45c0.881,0.76,1.707,1.721,1.31,4.413c-2.411,16.261-0.08,28.623,6.921,36.731
	c3.838,4.449,11.084,9.75,23.808,9.75c9.241,0,18.066,3.146,21.463,7.65c1.15,1.529,2.515,4.174,1.01,9.449
	c-7.821,27.368,1.977,35.814,13.616,42.699c3.091,1.83,5.76,3.408,7.467,5.723c0.526,0.715,0.68,1.18,0.771,1.07
	C546.041,487.925,536.903,493.55,516.248,493.55z"/>
<path d="M329.166,333.028C178.719,307.6,104.636,434.646,103.901,435.931c-2.503,4.406-0.961,10,3.439,12.502
	c4.388,2.51,10,0.98,12.515-3.427c2.57-4.498,60.771-103.593,181.508-96.69c-0.049,0.031-0.098,0.043-0.146,0.068
	c-2.951,1.799-72.425,45.031-87.651,126.01c-0.937,4.982,2.345,9.787,7.325,10.717c0.576,0.109,1.145,0.158,1.708,0.158
	c4.333,0,8.183-3.078,9.015-7.484c13.685-72.785,78.532-113.342,79.187-113.74c4.314-2.649,5.674-8.299,3.029-12.619
	c-0.538-0.881-1.224-1.604-1.971-2.228c4.67,0.489,9.407,1.102,14.254,1.922c138.116,23.335,170.943,123.44,172.271,127.694
	c1.225,3.934,4.848,6.463,8.765,6.463c0.894,0,1.805-0.129,2.705-0.41c4.847-1.494,7.563-6.629,6.07-11.477
	C514.474,468.715,478.855,358.322,329.166,333.028z"/>
<path d="M372.238,370.061c-2.662-4.321-8.316-5.661-12.631-2.999c-2.491,1.536-61.054,38.379-70.863,107.756
	c-0.711,5.018,2.784,9.662,7.803,10.373c0.434,0.061,0.869,0.092,1.297,0.092c4.498,0,8.428-3.311,9.076-7.895
	c8.58-60.668,61.794-94.371,62.332-94.708C373.561,380.018,374.895,374.369,372.238,370.061z"/>
<path d="M411.957,399.081c-1.627,0.729-40.03,18.428-56.347,74.463c-1.42,4.865,1.377,9.963,6.249,11.377
	c0.856,0.25,1.72,0.373,2.57,0.373c3.978,0,7.644-2.607,8.807-6.615c13.812-47.431,44.902-62.229,46.249-62.854
	c4.596-2.08,6.658-7.49,4.596-12.105C422.019,399.087,416.597,397.007,411.957,399.081z"/>
<path d="M221.748,385.3c3.916-3.22,4.479-9.003,1.267-12.914c-3.22-3.916-8.99-4.492-12.907-1.279
	c-2.062,1.689-50.594,42.002-62.436,99.126c-1.029,4.97,2.16,9.823,7.123,10.851c0.631,0.129,1.255,0.195,1.873,0.195
	c4.26,0,8.078-2.986,8.979-7.318C176.154,423.305,221.295,385.679,221.748,385.3z"/>
</svg>
